# AST/ASF file generated using VICON BodyLanguage
# -----------------------------------------------
:version 1.10
:name VICON
:units
  mass 1.0
  length 0.45
  angle deg
:documentation
   .ast/.asf automatically generated from VICON data using
   VICON BodyBuilder and BodyLanguage model FoxedUp or BRILLIANT.MOD
:root
   order TX TY TZ RX RY RZ
   axis XYZ
   position 0 0 0  
   orientation 0 0 0 
:bonedata
  begin
     id 1 
     name lhipjoint
     direction 0.627457 -0.725269 0.283342 
     length 2.53237 
     axis 0 0 0  XYZ
  end
  begin
     id 2 
     name lfemur
     direction 0.34202 -0.939693 0  
     length 7.32496  
     axis 0 0 20  XYZ
    dof rx ry rz
    limits (-160.0 20.0)
           (-70.0 70.0)
           (-60.0 70.0)
  end
  begin
     id 3 
     name ltibia
     direction 0.34202 -0.939693 0   
     length 7.69674   
     axis 0 0 20   XYZ
    dof rx
    limits (-10.0 170.0)
  end
  begin
     id 4 
     name lfoot
     direction 0.127289 -0.349722 0.928166   
     length 1.8612   
     axis -90 7.62852e-016 20   XYZ
    dof rx rz
    limits (-45.0 90.0)
           (-70.0 20.0)
  end
  begin
     id 5 
     name ltoes
     direction 1.53561e-011 -4.21864e-011 1   
     length 0.925608   
     axis -90 7.62852e-016 20   XYZ
    dof rx
    limits (-90.0 20.0)
  end
  begin
     id 6 
     name rhipjoint
     direction -0.609094 -0.738725 0.288599   
     length 2.48624  
     axis 0 0 0  XYZ 
  end
  begin
     id 7 
     name rfemur
     direction -0.34202 -0.939693 0   
     length 7.44259   
     axis 0 0 -20   XYZ
    dof rx ry rz
    limits (-160.0 20.0)
           (-70.0 70.0)
           (-70.0 60.0)
  end
  begin
     id 8 
     name rtibia
     direction -0.34202 -0.939693 0   
     length 7.7781   
     axis 0 0 -20   XYZ
    dof rx
    limits (-10.0 170.0)
 end
 begin
     id 9 
     name rfoot
     direction -0.107015 -0.294021 0.949789   
     length 2.14741  
     axis -90 -7.62852e-016 -20   XYZ
    dof rx rz
    limits (-45.0 90.0)
           (-20.0 70.0)
  end
  begin
     id 10 
     name rtoes
     direction -1.53497e-011 -4.21924e-011 1   
     length 1.0706   
     axis -90 -7.62852e-016 -20   XYZ
    dof rx
    limits (-90.0 20.0)
  end
  begin
     id 11 
     name lowerback
     direction -0.0142066 0.998112 -0.0597545   
     length 1.86627   
     axis 0 0 0   XYZ
    dof rx ry rz
    limits (-20.0 45.0)
           (-30.0 30.0)
           (-30.0 30.0)
  end
  begin
     id 12 
     name upperback
     direction 0.00547294 0.999744 0.0219437   
     length 1.86272   
     axis 0 0 0   XYZ
    dof rx ry rz
    limits (-20.0 45.0)
           (-30.0 30.0)
           (-30.0 30.0)
  end
  begin
     id 13 
     name thorax
     direction 0.0116162 0.998704 0.0495538   
     length 1.8703   
     axis 0 0 0   XYZ
    dof rx ry rz
    limits (-20.0 45.0)
           (-30.0 30.0)
           (-30.0 30.0)
  end
  begin
     id 14 
     name lowerneck
     direction -0.0106574 0.998739 0.0490586   
     length 1.8074   
     axis 0 0 0   XYZ
    dof rx ry rz
    limits (-20.0 45.0)
           (-30.0 30.0)
           (-30.0 30.0)
  end
  begin
     id 15 
     name upperneck
     direction 0.030527 0.976587 -0.212944   
     length 1.80681   
     axis 0 0 0   XYZ
    dof rx ry rz
    limits (-20.0 45.0)
           (-30.0 30.0)
           (-30.0 30.0)
  end
  begin
     id 16
     name head
     direction 0.00869225 0.997035 -0.0764531  
     length 1.8313  
     axis 0 0 0   XYZ
    dof rx ry rz
    limits (-20.0 45.0)
           (-30.0 30.0)
           (-30.0 30.0)
  end
  begin
     id 17 
     name lclavicle
     direction 0.915958 0.399447 0.0382386  
     length 3.78965  
     axis 0 0 0   XYZ
    dof ry rz
    limits (-20.0 10.0)
           (0.0 20.0)
  end
  begin
     id 18 
     name lhumerus
     direction 1 -4.48967e-011 3.19303e-027   
     length 4.78095   
     axis -180 -30 -90   XYZ
    dof rx ry rz
    limits (-60.0 90.0)
           (-90.0 90.0)
           (-90.0 90.0)
  end
  begin
     id 19
     name lradius
     direction 1 -4.48967e-011 -3.77974e-027   
     length 3.58615   
     axis -180 -30 -90   XYZ
    dof rx
    limits (-10.0 170.0)
  end
  begin
     id 20
     name lwrist
     direction 1 -4.48927e-011 1.2807e-027   
     length 1.79307   
     axis 1.91374e-015 90 90   XYZ
    dof ry
    limits (-180.0 0.0)
 end
  begin
     id 21 
     name lhand
     direction 1 -4.49036e-011 2.5614e-027   
     length 0.659812   
     axis -1.63439e-015 90 90   XYZ
    dof rx rz
    limits (-90.0 90.0)
           (-45.0 45.0)
  end
  begin
     id 22 
     name lfingers
     direction 1 -4.49052e-011 5.1228e-027   
     length 0.531957   
     axis -3.26879e-015 90 90   XYZ
    dof rx
    limits (0.0 90.0)
  end
  begin
     id 23
     name lthumb
     direction 0.707107 -6.35012e-011 0.707107   
     length 0.763787   
     axis -90 45 2.85299e-015   XYZ
    dof rx rz
    limits (-45.0 45.0)
           (-45.0 45.0)
  end
  begin
     id 24 
     name rclavicle
     direction -0.895351 0.435135 0.0948887   
     length 3.70497  
     axis 0 0 0   XYZ 
    dof ry rz
    limits (-10.0 20.0)
           (-20.0 0.0)
  end
  begin
     id 25 
     name rhumerus
     direction -1 -4.48971e-011 2.38946e-027  
     length 4.48913   
     axis -180 30 90   XYZ
    dof rx ry rz
    limits (-90.0 60.0)
           (-90.0 90.0)
           (-90.0 90.0)
  end
  begin
     id 26 
     name rradius
     direction -1 -4.4895e-011 4.38668e-027   
     length 3.7051   
     axis -180 30 90   XYZ
    dof rx
    limits (-10.0 170.0)
  end
  begin
     id 27 
     name rwrist
     direction -1 -4.49007e-011 1.2807e-027   
     length 1.85255   
     axis 1.91374e-015 -90 -90   XYZ
    dof ry
    limits (-180.0 0.0)
  end
  begin
     id 28
     name rhand
     direction -1 -4.48851e-011 2.5614e-027   
     length 0.449136   
     axis -1.63439e-015 -90 -90   XYZ
    dof rx rz
    limits (-90.0 90.0)
           (-45.0 45.0)
  end
  begin
     id 29
     name rfingers
     direction -1 -4.49128e-011 5.1228e-027   
     length 0.362105   
     axis -3.26879e-015 -90 -90   XYZ
    dof rx
    limits (0.0 90.0)
  end
  begin
     id 30
     name rthumb
     direction -0.707107 -6.34851e-011 0.707107   
     length 0.519912   
     axis -90 -45 -2.85299e-015   XYZ
    dof rx rz
    limits (-45.0 45.0)
           (-45.0 45.0)
  end
:hierarchy
  begin
    root lhipjoint rhipjoint lowerback
    lhipjoint lfemur
    lfemur ltibia
    ltibia lfoot
    lfoot ltoes
    rhipjoint rfemur
    rfemur rtibia
    rtibia rfoot
    rfoot rtoes
    lowerback upperback
    upperback thorax
    thorax lowerneck lclavicle rclavicle
    lowerneck upperneck
    upperneck head
    lclavicle lhumerus
    lhumerus lradius
    lradius lwrist
    lwrist lhand lthumb
    lhand lfingers
    rclavicle rhumerus
    rhumerus rradius
    rradius rwrist
    rwrist rhand rthumb
    rhand rfingers
  end

#!OML:ASF I:\Actors\actors\Patient Classification 2\Patient 1\Session 1\actor1.ASF
:FULLY-SPECIFIED
:DEGREES
68
root -0.790814 18.6477 6.23035 0.7187 -4.13666 -4.11699
lowerback 1.73499 1.14322 1.30287
upperback -1.06205 1.57558 0.857011
thorax -2.05 0.774658 0.0938596
lowerneck -10.7742 -0.409532 2.12478
upperneck 22.6928 -1.03628 0.093208
head 8.85482 -0.299465 -0.43876
rclavicle 8.56638e-015 2.38542e-015
rhumerus -45.3354 1.08044 -90.2372
rradius 40.2842
rwrist 17.4104
rhand -6.65969 -27.6273
rfingers 7.12502
rthumb 19.1981 -56.6998
lclavicle 8.56638e-015 2.38542e-015
lhumerus -40.673 -2.45826 93.3848
lradius 37.2942
lwrist -17.3099
lhand 1.34936 -24.5585
lfingers 7.12502
lthumb 26.8822 3.55009
rfemur 0 0 0
rtibia 0
rfoot 0 0
rtoes 0
lfemur -2.65616 -8.72489 -10.9754
ltibia 22.7907
lfoot -25.1929 14.676
ltoes -55.8138
69
root -0.792874 18.6465 6.23003 0.721573 -4.15316 -4.1129
lowerback 1.72307 1.15527 1.28677
upperback -1.07328 1.59128 0.862765
thorax -2.05532 0.782712 0.108348
lowerneck -10.5943 -0.46577 2.06547
upperneck 22.6976 -1.14189 0.278421
head 8.82374 -0.335281 -0.376519
rclavicle 2.68887e-014 1.8487e-014
rhumerus -45.3952 1.07884 -90.2413
rradius 40.2998
rwrist 17.3811
rhand -6.75277 -27.504
rfingers 7.12502
rthumb 19.1086 -56.5853
lclavicle 2.68887e-014 1.8487e-014
lhumerus -40.6855 -2.32557 93.3427
lradius 37.2579
lwrist -17.3435
lhand 1.42759 -24.5134
lfingers 7.12502
lthumb 26.957 3.5836
rfemur 0 0 0
rtibia 0
rfoot 0 0
rtoes 0
lfemur -2.65987 -8.6972 -10.9725
ltibia 22.7958
lfoot -25.1768 14.712
ltoes -55.8952
70
root -0.795815 18.647 6.22988 0.725516 -4.16937 -4.14572
lowerback 1.71596 1.17959 1.31882
upperback -1.09117 1.62499 0.878281
thorax -2.06905 0.799084 0.105105
lowerneck -10.3962 -0.543987 1.96592
upperneck 22.7287 -1.27517 0.485359
head 8.79873 -0.385203 -0.303004
rclavicle -3.72411e-015 -1.03368e-014
rhumerus -45.4772 1.07179 -90.216
rradius 40.364
rwrist 17.3231
rhand -6.76233 -27.4142
rfingers 7.12502
rthumb 19.0994 -56.4964
lclavicle -3.72411e-015 -1.03368e-014
lhumerus -40.7317 -2.31436 93.366
lradius 37.2771
lwrist -17.2803
lhand 1.42311 -24.4493
lfingers 7.12502
lthumb 26.9527 3.64838
rfemur 0 0 0
rtibia 0
rfoot 0 0
rtoes 0
lfemur -2.67279 -8.65287 -10.9161
ltibia 22.8043
lfoot -25.1363 14.7015
ltoes -55.9546
71
root -0.798799 18.6486 6.22976 0.729086 -4.16021 -4.15917
lowerback 1.69324 1.19185 1.32714
upperback -1.11068 1.64176 0.896431
thorax -2.07652 0.807388 0.118742
lowerneck -10.1617 -0.634217 1.89516
upperneck 22.7804 -1.42591 0.671359
head 8.77398 -0.443214 -0.243027
rclavicle -1.78999e-014 -5.1684e-015
rhumerus -45.5882 1.03251 -90.1548
rradius 40.4945
rwrist 17.252
rhand -6.64239 -27.4658
rfingers 7.12502
rthumb 19.2147 -56.5365
lclavicle -1.78999e-014 -5.1684e-015
lhumerus -40.805 -2.31645 93.3952
lradius 37.3231
lwrist -17.2236
lhand 1.42727 -24.4553
lfingers 7.12502
lthumb 26.9567 3.64182
rfemur 0 0 0
rtibia 0
rfoot 0 0
rtoes 0
lfemur -2.68907 -8.68682 -10.8905
ltibia 22.8147
lfoot -25.1414 14.7323
ltoes -55.9553
72
root -0.800552 18.6488 6.22996 0.718671 -4.14565 -4.13564
lowerback 1.66062 1.18727 1.30252
upperback -1.12275 1.63476 0.907644
thorax -2.07163 0.804332 0.144827
lowerneck -9.89539 -0.726022 1.86476
upperneck 22.8644 -1.58616 0.853478
head 8.75453 -0.502724 -0.191905
rclavicle 1.39522e-014 0
rhumerus -45.6788 1.02877 -90.1076
rradius 40.6222
rwrist 17.0926
rhand -6.51718 -27.5351
rfingers 7.12502
rthumb 19.3351 -56.5938
lclavicle 1.39522e-014 0
lhumerus -40.8806 -2.23072 93.3728
lradius 37.3607
lwrist -17.2938
lhand 1.37503 -24.5056
lfingers 7.12502
lthumb 26.9067 3.59917
rfemur 0 0 0
rtibia 0
rfoot 0 0
rtoes 0
lfemur -2.68215 -8.84264 -10.9332
ltibia 22.8328
lfoot -25.2327 14.814
ltoes -55.8831
73
root -0.802216 18.6479 6.23 0.693423 -4.13639 -4.12176
lowerback 1.638 1.19632 1.31263
upperback -1.13029 1.6466 0.900244
thorax -2.06609 0.810057 0.131621
lowerneck -9.6504 -0.816323 1.82239
upperneck 23.0382 -1.75819 1.09319
head 8.77105 -0.561743 -0.120627
rclavicle -6.49156e-015 -6.55989e-015
rhumerus -45.7699 0.933478 -90.0544
rradius 40.8013
rwrist 16.8164
rhand -6.33773 -27.629
rfingers 7.12502
rthumb 19.5077 -56.6704
lclavicle -6.49156e-015 -6.55989e-015
lhumerus -40.9111 -2.17166 93.3241
lradius 37.3293
lwrist -17.3889
lhand 1.22766 -24.4928
lfingers 7.12502
lthumb 26.7657 3.63366
rfemur 0 0 0
rtibia 0
rfoot 0 0
rtoes 0
lfemur -2.65528 -9.02111 -10.9719
ltibia 22.851
lfoot -25.313 14.9347
ltoes -55.8738
74
root -0.805417 18.6472 6.22936 0.668917 -4.11696 -4.14847
lowerback 1.63187 1.22759 1.36169
upperback -1.14449 1.68948 0.891062
thorax -2.07528 0.830598 0.0933158
lowerneck -9.41574 -0.93183 1.69823
upperneck 23.299 -1.98392 1.46338
head 8.82232 -0.638328 0.00317574
rclavicle -9.93923e-017 5.96354e-015
rhumerus -45.9032 0.563223 -89.8775
rradius 41.1379
rwrist 16.5193
rhand -6.06452 -27.6138
rfingers 7.12502
rthumb 19.7703 -56.6284
lclavicle -9.93923e-017 5.96354e-015
lhumerus -40.9297 -2.21508 93.3074
lradius 37.3047
lwrist -17.3859
lhand 1.08627 -24.4284
lfingers 7.12502
lthumb 26.6304 3.71865
rfemur 0 0 0
rtibia 0
rfoot 0 0
rtoes 0
lfemur -2.63892 -9.07814 -10.9412
ltibia 22.8635
lfoot -25.3056 15.0072
ltoes -55.9662
75
root -0.809174 18.6466 6.22859 0.645891 -4.10129 -4.1973
lowerback 1.63989 1.25001 1.39591
upperback -1.15375 1.72103 0.913985
thorax -2.08879 0.845924 0.0962979
lowerneck -9.17902 -1.07513 1.54141
upperneck 23.578 -2.2464 1.83819
head 8.88133 -0.734349 0.130828
rclavicle -1.93567e-014 1.19271e-015
rhumerus -46.0675 0.141638 -89.6236
rradius 41.6666
rwrist 16.1435
rhand -5.91353 -27.4888
rfingers 7.12502
rthumb 19.9155 -56.4883
lclavicle -1.93567e-014 1.19271e-015
lhumerus -40.9524 -2.25456 93.3217
lradius 37.3626
lwrist -17.3141
lhand 1.08446 -24.3994
lfingers 7.12502
lthumb 26.6287 3.74796
rfemur 0 0 0
rtibia 0
rfoot 0 0
rtoes 0
lfemur -2.62374 -9.09052 -10.8764
ltibia 22.8797
lfoot -25.311 15.0071
ltoes -55.9803
76
root -0.812451 18.6461 6.2281 0.633883 -4.07938 -4.19401
lowerback 1.62794 1.25782 1.37486
upperback -1.16289 1.73124 0.935639
thorax -2.09267 0.851453 0.130073
lowerneck -9.01739 -1.23449 1.39911
upperneck 23.9878 -2.53078 2.1611
head 9.00061 -0.842015 0.236108
rclavicle -2.98798e-015 9.54166e-015
rhumerus -46.2556 -0.178394 -89.3895
rradius 42.3933
rwrist 15.5109
rhand -5.81379 -27.5317
rfingers 7.12502
rthumb 20.0113 -56.5212
lclavicle -2.98798e-015 9.54166e-015
lhumerus -40.9862 -2.26509 93.3317
lradius 37.4366
lwrist -17.2126
lhand 1.15635 -24.4242
lfingers 7.12502
lthumb 26.6975 3.71267
rfemur 0 0 0
rtibia 0
rfoot 0 0
rtoes 0
lfemur -2.63081 -9.08817 -10.8649
ltibia 22.9028
lfoot -25.3177 14.9556
ltoes -55.9481
77
root -0.815837 18.6454 6.22779 0.616159 -4.05126 -4.17399
lowerback 1.58979 1.2685 1.37644
upperback -1.16091 1.74465 0.934367
thorax -2.06902 0.85826 0.128402
lowerneck -8.95414 -1.38469 1.34001
upperneck 24.5835 -2.8171 2.42954
head 9.20385 -0.94406 0.3082
rclavicle 9.48576e-015 -1.09332e-014
rhumerus -46.4755 -0.502887 -89.1698
rradius 43.3412
rwrist 14.6743
rhand -5.39885 -27.7249
rfingers 7.12502
rthumb 20.4102 -56.6722
lclavicle 9.48576e-015 -1.09332e-014
lhumerus -41.0624 -2.28804 93.3207
lradius 37.5492
lwrist -17.0868
lhand 1.2087 -24.3838
lfingers 7.12502
lthumb 26.7476 3.74547
rfemur 0 0 0
rtibia 0
rfoot 0 0
rtoes 0
lfemur -2.64124 -8.94009 -10.8512
ltibia 22.9212
lfoot -25.2188 14.837
ltoes -56.0217
78
root -0.819672 18.6458 6.22629 0.586825 -4.03869 -4.19333
lowerback 1.55655 1.27144 1.42537
upperback -1.13998 1.74885 0.943279
thorax -2.02766 0.86002 0.111157
lowerneck -8.97886 -1.50225 1.28532
upperneck 25.2935 -3.07064 2.7028
head 9.46714 -1.02558 0.384402
rclavicle 6.21202e-017 -3.77691e-015
rhumerus -46.7406 -0.676831 -89.0449
rradius 44.4556
rwrist 13.3707
rhand -5.3492 -27.7197
rfingers 7.12502
rthumb 20.4579 -56.662
lclavicle 6.21202e-017 -3.77691e-015
lhumerus -41.1254 -2.28416 93.2978
lradius 37.6797
lwrist -16.9407
lhand 1.25223 -24.2434
lfingers 7.12502
lthumb 26.7892 3.87941
rfemur 0 0 0
rtibia 0
rfoot 0 0
rtoes 0
lfemur -2.63114 -8.70966 -10.7828
ltibia 22.9237
lfoot -25.0622 14.7066
ltoes -56.1417
79
root -0.823952 18.6471 6.2229 0.574179 -4.00124 -4.20176
lowerback 1.53572 1.25199 1.44206
upperback -1.1263 1.72311 0.970215
thorax -2.00247 0.847324 0.130935
lowerneck -8.99701 -1.623 1.03249
upperneck 26.013 -3.34559 3.16751
head 9.74388 -1.11358 0.559467
rclavicle -9.73424e-015 -3.57812e-015
rhumerus -47.0313 -0.656071 -88.9646
rradius 45.6974
rwrist 11.7052
rhand -5.92753 -27.3901
rfingers 7.12502
rthumb 19.902 -56.3911
lclavicle -9.73424e-015 -3.57812e-015
lhumerus -41.1414 -2.22488 93.272
lradius 37.7385
lwrist -16.8203
lhand 1.26242 -24.2065
lfingers 7.12502
lthumb 26.799 3.91486
rfemur 0 0 0
rtibia 0
rfoot 0 0
rtoes 0
lfemur -2.63805 -8.67429 -10.7433
ltibia 22.9186
lfoot -25.0251 14.6492
ltoes -56.1466
